<svg id="Calque_1" data-name="Calque 1" xmlns="http://www.w3.org/2000/svg" viewBox="0 0 730 183"><defs><style>.cls-1{fill:none;stroke:#fff;}</style></defs><path class="cls-1" d="M125.3,240.08q-20.25,0-35.75-7.25A56.79,56.79,0,0,1,65.3,212.08q-8.76-13.5-8.75-32.5v-7h32.5v7q0,15.75,9.75,23.63t26.5,7.87q17,0,25.37-6.75a21.18,21.18,0,0,0,8.38-17.25q0-7.25-4.13-11.75t-12-7.37a153.89,153.89,0,0,0-19.12-5.38l-5.75-1.25a145.82,145.82,0,0,1-30.88-10.12q-12.87-6.14-19.75-16.13t-6.87-26q0-16,7.62-27.37t21.5-17.5q13.88-6.13,32.63-6.13t33.37,6.38a51.62,51.62,0,0,1,23,19q8.39,12.62,8.38,31.62v7.5h-32.5v-7.5q0-10-3.88-16.12a22.51,22.51,0,0,0-11.12-9,46.71,46.71,0,0,0-17.25-2.88q-15,0-22.13,5.63t-7.12,15.37a17.79,17.79,0,0,0,3.37,11,25,25,0,0,0,10.13,7.5,89.29,89.29,0,0,0,17.25,5.25l5.75,1.25a162.57,162.57,0,0,1,32.62,10.25q13.88,6.25,21.63,16.5t7.75,26.25q0,16-8.13,28.13t-23,19Q145.56,240.08,125.3,240.08Z" transform="translate(-56.05 -57.58)"/><path class="cls-1" d="M216.05,236.58v-175h72q16.5,0,29.12,6.63a48.84,48.84,0,0,1,19.75,18.62q7.13,12,7.13,28.5v3.5q0,16.26-7.38,28.38a50.42,50.42,0,0,1-20,18.75,60.76,60.76,0,0,1-28.62,6.62h-39v64Zm33-94H284.8q11.74,0,19-6.5t7.25-17.75v-2.5q0-11.25-7.25-17.75t-19-6.5H249.05Z" transform="translate(-56.05 -57.58)"/><path class="cls-1" d="M341.55,236.58l46-175h57.5l46,175h-34l-9.5-38.5h-62.5l-9.5,38.5Zm51.25-69h47L418.55,82.33h-4.5Z" transform="translate(-56.05 -57.58)"/><path class="cls-1" d="M577,240.08q-32.49,0-51.5-18.12t-19-51.88v-42q0-33.75,19-51.87T577,58.08q32.25,0,49.88,17.63t17.62,48.37v1.5H612v-2.5q0-15.49-8.62-25.5T577,87.58q-17.49,0-27.5,10.75t-10,29.25v43q0,18.25,10,29.13T577,210.58q17.76,0,26.38-10.12T612,175.08v-4.5h32.5v3.5q0,30.75-17.62,48.38T577,240.08Z" transform="translate(-56.05 -57.58)"/><path class="cls-1" d="M671.54,236.58v-175H784v30h-79.5v41.75H777v30h-72.5v43.25h81v30Z" transform="translate(-56.05 -57.58)"/></svg>
